P1
# CREATOR: GIMP PNM Filter Version 1.1
191 46
0000000000000000000000000000000000000000000000000000000000000000000000
0000000000000000000000000000000000000000000000000000000000000000000000
0000000000000000000000000000000000000000000000000000000000000000000000
0000000000000000000000000000000000000000000000000000000000000000000000
0000000000000000000000000000000000000000000000000000000000000000000000
0000000000000000000000000000000000000000000000000000000000000000000000
0000000000000000000000000000000000000000000000000000000000000000000000
0000000000000000000000000000000000000000000000000000000000000000000000
0000000000000000000000000000000000000000000000000000000000000000000000
0000000000000000000000000000000000000000000000000000000000000000000000
0000000000000000000000000000000000000000000000000000000000000000000000
0000000000000000000000000000000000000000000000000000000000000000000000
0000000000000000000000000000000000000000000000000000000000000000000000
0000000000000000000000000000000000000000000000000000000000000000000000
0000000000000000000000000000000000000000000000000000000000000000000000
0000000000000000000000000000000000000000000000000000000000000000000000
0000000000000000000000000000000000000000000000000000000000000000000000
0000000000000000000000000000000000000000000000000000000000000000000000
0000000000000000000000000000000000000000000000000000000000000000000000
0000000000000000000000000000000000000000000000000000000000000000000000
0000000000000000000000000000000000000000000000000000000000000000000000
0000000000000000000000000000000000000000000000000000000000000000000000
0000000000000000000000000000000000000000000000000000000000000000000000
0000000000000000000000000000000000000000000000000000000000000000000000
0000000000000000000000000000000000000000000000000000000000000000000000
0000000000000000000000000000000000000000000000000000000000000000000000
0000000000000000000000000000000000000000000000000000000000000000000000
0000000000000000000000000000000000000000000000000000000000000000000000
0000000000000000000000000000000000000000000000000000000000000000000000
0000000000000000000000000000000000000000000000000000000000000000000000
0000000000000000000000000000000000000000000000000000000000000000000000
0000000000000000000000000000000000000000000000000000000000000000000000
0000000000000000000000000000000000000000000000000000000000000000000000
0000000000000000000000000000000000000000000000000000000000000000000000
0000000000000000000000000000000000000000000000000000000000000000000000
0000000000000000000000000000000000000000000000000000000000000000000000
0000000000000000000000000000000000000000000000000000000000000000000000
0000000000000000000000000000000000000000000000000000000000000000000000
0000000000000000000000000000000000111111000000000000000000000000000000
0000000000000000000000000000000000000000000000000000000000000000000000
0000000000000000000000000000000000000000000000000000000000000000000000
0000000000000111111111100000000000000000000000000000000000000000000000
0000000000000000000000000000000000000000000000000000000000000000000000
0000000000000000000000000000000000000000000000000000000000000001111111
1111100000000000000000000000000000000000000000000000000000000000000000
0000000000000000000000000000000000000000000000000000000000000000000000
0000000000000000000000000000000000000000000111111111111000000000000000
0000000000000000000010000000000000000000000100000000000000000000000000
0000000010000000000000000000000000000000000000000000001100000000000000
0000000000000000000000011111100001100000000000000000000000000001111100
0110000000000000000000001100000000000000000000000011000100011000000000
0011111100000000000000000000000000011000000000000000000000000000000000
0000111100000000000000000000000000000000001111011100000000000000000000
0000010000000000000000000000000010011000100000000000111011100000000000
0000000000000000110000000000000000000000000000000000000111100000000000
0000000000000000000000001100011011000011110011011000000010001011100000
0100010001101001111011111100000011100011000011100000111000001110100110
0011100000000000000000000000000000000100000010111011000000000000000000
0000011100000010011111110111111000000110011111100000110011001101101111
0011111100000110000000011111100011111100111111001100111110000000000000
0000000000000000101000000111111111000000000000000000000011111100110011
0001001100110000001100110011000001101110010011001100011001100000011000
1000110011101100011011100110011011000110000000000000000000000000000001
0000001111111110000000000000000000000001111001110110001101100110000001
1001100110000001011111100110011001100011000001100111100110001101100011
0110001100110111111100000000000000000000000000001010000001111111100000
0000000000000000000000011001001100011011000110000011001100110000001111
1111001100110001100110000001100011101100011011000110110001100110111111
0000000000000000000000000000000110000000000111000000000000000000000011
1000110111011000110110011000000110010001100000011100111001100110001000
1100000011000110011000110110001101100011001101100000000000000000000000
0000000000011110000000011110000000000000000000000011111110010011111110
1100010000001100110011000000111001100011001110011001100000011110111011
1011000111111001111110011001111110000000000000000000000000000001111000
0001111100000000000000000000000011111001100011111001100110000001101100
0110000000110011000110001110110011000000011111000011111000111110001111
1100110001111000000000000000000000000000000011011101111111000000000000
0000000000000000000000000000111000000000000000000000000000000000000000
0000000000000000000000000000000000000000000000000001100000000000000000
0000000000000000000000000011111110111100000000000000000000000000000000
0000011111100000000000000000000000000000000000000000000000000000000000
0000000000000000000000000001111110000000000000000000000000000000000000
0000000011111111100000000000000000000000000000000000000001111000000000
0000000000000000000000000000000000000000000000000000000000000000000000
0000000000111000000000000000000000000000000000000000000000000010110100
0000000000000000000000000000000000000000000000000000000000000000000000
0000000000000000000000000000000000000000000000000000000000000000000000
0000000000000000000000000000000000000000000000000000000000000000000000
0000000000000000000000000000000000000000000000000000000000000000000000
0000000000000000000000000000000000000000000000000000000000000000000000
0000000000000000000000000000000000000000000000000000000000000000000000
0000000000000000000000000000000000000000000000000000000000000000000000
0000000000000000000000000000000000000000000000000000000000000000000000
0000000000000000000000000000000000000000000000000000000000000000000000
0000000000000000000000000000000000000000000000000000000000000000000000
0000000000000000000000000000000000000000000000000000000000000000000000
0000000000000000000000000000000000000000000000000000000000000000000000
0000000000000000000000000000000000000000000000000000000000000000000000
0000000000000000000000000000000000000000000000000000000000000000000000
0000000000000000000000000000000000000000000000000000000000000000000000
0000000000000000000000000000000000000000000000000000000000000000000000
0000000000000000000000000000000000000000000000000000000000000000000000
0000000000000000000000000000000000000000000000000000000000000000000000
0000000000000000000000000000000000000000000000000000000000000000000000
0000000000000000000000000000000000000000000000000000000000000000000000
0000000000000000000000000000000000000000000000000000000000000000000000
0000000000000000000000000000000000000000000000000000000000000000000000
0000000000000000000000000000000000000000000000000000000000000000000000
0000000000000000000000000000000000000000000000000000000000000000000000
0000000000000000000000000000000000000000000000000000000000000000000000
0000000000000000000000000000000000000000000000000000000000000000000000
0000000000000000000000000000000000000000000000000000000000000000000000
0000000000000000000000000000000000000000000000000000000000000000000000
0000000000000000000000000000000000000000000000000000000000000000000000
0000000000000000000000000000000000000000000000000000000000000000000000
0000000000000000000000000000000000000000000000000000000000000000000000
0000000000000000000000000000000000000000000000000000000000000000000000
0000000000000000000000000001010101010101010101010101010101010101010101
0101010101010101010101010101010101010101010101010101010101010101010101
0101010101010101010101010101010101010101010101010101010101010101010101
0000000000000000000000000000000000000000000000000000000000000000000000
0000000000000000000000000000000000000000000000000000000000000000000000
0000000000000000000000000000000000000000000000000000000000000000000000
0000000000000000000000000000000000000000000000000000000000000000000000
0000000000000000000000000000000000000000000000000000000000000000000000
000000000000000000000000000000000000