<?xml version="1.0" standalone="no"?>
<!DOCTYPE svg PUBLIC "-//W3C//DTD SVG 20010904//EN"
 "http://www.w3.org/TR/2001/REC-SVG-20010904/DTD/svg10.dtd">
<svg version="1.0" xmlns="http://www.w3.org/2000/svg"
 width="191.000000pt" height="46.000000pt" viewBox="0 0 191.000000 46.000000"
 preserveAspectRatio="xMidYMid meet">
<metadata>
Created by potrace 1.14, written by Peter Selinger 2001-2017
</metadata>
<g transform="translate(0.000000,46.000000) scale(0.100000,-0.100000)"
fill="#000000" stroke="none">
<path d="M177 300 c-29 -23 -31 -110 -4 -138 43 -42 132 -9 139 53 3 29 2 30
-39 31 -36 1 -43 -2 -43 -17 0 -14 7 -19 26 -19 31 0 19 -24 -16 -33 -23 -6
-70 27 -70 50 0 27 42 55 72 49 36 -7 58 18 29 33 -30 17 -66 13 -94 -9z"/>
<path d="M630 280 c0 -5 5 -10 11 -10 5 0 7 5 4 10 -3 6 -8 10 -11 10 -2 0 -4
-4 -4 -10z"/>
<path d="M860 237 c0 -34 4 -57 11 -57 6 0 9 19 7 50 -6 70 -18 75 -18 7z"/>
<path d="M1209 276 c-4 -58 0 -96 11 -96 5 0 8 12 7 27 -1 14 4 28 11 30 8 3
12 -6 12 -26 0 -17 5 -31 11 -31 23 0 5 75 -19 78 -12 2 -20 7 -17 12 3 5 1
11 -5 15 -5 3 -10 -1 -11 -9z"/>
<path d="M1670 235 c0 -30 5 -55 10 -55 6 0 10 25 10 55 0 30 -4 55 -10 55 -5
0 -10 -25 -10 -55z"/>
<path d="M544 274 c-19 -8 -3 -44 22 -50 37 -9 29 -27 -8 -18 -29 6 -31 5 -19
-10 15 -18 56 -22 66 -6 11 17 -5 48 -26 53 -12 3 -18 10 -14 17 5 8 11 8 21
-1 16 -13 30 -6 19 10 -6 11 -40 13 -61 5z"/>
<path d="M1121 230 c-1 -30 2 -50 9 -50 6 0 10 20 9 50 -1 28 -5 50 -9 50 -3
0 -7 -22 -9 -50z"/>
<path d="M1162 268 c-16 -20 0 -82 23 -87 17 -3 18 -1 6 13 -7 9 -11 26 -8 38
8 31 -6 54 -21 36z"/>
<path d="M1332 267 c-11 -12 -8 -60 4 -79 6 -10 45 -10 59 0 22 15 3 54 -21
45 -12 -4 -12 -8 -4 -13 7 -4 11 -13 9 -19 -6 -16 -29 2 -34 27 -4 24 19 50
30 32 9 -15 25 -12 25 5 0 19 -53 20 -68 2z"/>
<path d="M624 220 c0 -35 14 -58 17 -30 5 36 0 70 -9 70 -5 0 -8 -18 -8 -40z"/>
<path d="M673 254 c-23 -10 -16 -65 10 -72 22 -6 22 -6 -3 -13 -23 -6 -23 -7
-6 -14 32 -14 51 7 51 56 0 45 -16 58 -52 43z m37 -34 c0 -11 -7 -20 -15 -20
-8 0 -15 9 -15 20 0 11 7 20 15 20 8 0 15 -9 15 -20z"/>
<path d="M740 219 c0 -22 5 -39 10 -39 6 0 10 14 10 30 0 17 5 30 10 30 10 0
13 -9 13 -42 0 -23 13 -23 19 0 9 32 -8 60 -36 60 -23 0 -26 -4 -26 -39z"/>
<path d="M898 218 c-2 -23 0 -37 7 -35 10 4 11 8 14 42 2 28 21 15 21 -15 0
-16 5 -30 11 -30 6 0 9 16 7 38 -5 57 -54 58 -60 0z"/>
<path d="M1015 229 c11 -49 35 -73 35 -34 0 8 5 15 10 15 6 0 10 -7 10 -15 0
-22 18 -18 24 5 3 11 9 29 12 40 3 11 1 20 -5 20 -6 0 -11 -7 -11 -15 0 -21
-16 -19 -25 3 -6 15 -8 14 -20 -8 -10 -18 -14 -20 -15 -8 0 9 -5 20 -11 24 -8
4 -9 -4 -4 -27z"/>
<path d="M1432 251 c-8 -5 -12 -21 -10 -37 4 -41 54 -48 64 -10 10 41 -21 68
-54 47z m33 -34 c0 -26 -20 -25 -23 2 -3 16 1 22 10 19 7 -3 13 -12 13 -21z"/>
<path d="M1510 245 c-7 -9 -10 -25 -6 -41 10 -38 60 -31 64 10 5 42 -32 62
-58 31z m40 -25 c0 -11 -7 -20 -15 -20 -8 0 -15 9 -15 20 0 11 7 20 15 20 8 0
15 -9 15 -20z"/>
<path d="M1590 245 c-19 -22 -4 -65 23 -66 17 -1 15 -3 -8 -8 -29 -7 -29 -7
-7 -15 34 -11 52 9 52 58 0 45 -34 63 -60 31z m40 -25 c0 -11 -7 -20 -15 -20
-15 0 -21 21 -8 33 12 13 23 7 23 -13z"/>
<path d="M1710 245 c-25 -30 9 -76 46 -60 17 7 15 9 -11 15 -23 6 -25 8 -8 9
28 1 38 18 23 36 -16 19 -34 19 -50 0z m37 -11 c-3 -3 -12 -4 -19 -1 -8 3 -5
6 6 6 11 1 17 -2 13 -5z"/>
</g>
</svg>
