<?xml version="1.0" standalone="no"?>
<!DOCTYPE svg PUBLIC "-//W3C//DTD SVG 20010904//EN"
 "http://www.w3.org/TR/2001/REC-SVG-20010904/DTD/svg10.dtd">
<svg version="1.0" xmlns="http://www.w3.org/2000/svg"
 width="76.000000pt" height="32.000000pt" viewBox="0 0 76.000000 32.000000"
 preserveAspectRatio="xMidYMid meet">
<metadata>
Created by potrace 1.14, written by Peter Selinger 2001-2017
</metadata>
<g transform="translate(0.000000,32.000000) scale(0.100000,-0.100000)"
fill="#000000" stroke="none">
<path d="M0 160 l0 -160 380 0 380 0 0 160 c0 158 0 160 -22 160 -20 0 -20 -1
-5 -13 15 -11 17 -29 15 -152 l-3 -140 -365 0 -365 0 -3 140 c-2 123 0 141 15
152 15 12 15 13 -5 13 -22 0 -22 -2 -22 -160z"/>
<path d="M164 240 c-29 -12 -39 -40 -14 -40 10 0 22 5 25 10 4 6 11 8 16 5 17
-11 9 -22 -21 -28 -21 -5 -31 -14 -36 -32 -10 -38 11 -56 60 -50 22 2 44 4 48
4 8 1 -2 113 -11 122 -12 13 -46 17 -67 9z m36 -84 c0 -8 -4 -17 -9 -21 -12
-7 -24 12 -16 25 9 15 25 12 25 -4z"/>
<path d="M341 167 l-1 -47 58 2 c54 3 57 4 60 31 3 26 1 28 -25 25 -20 -2 -29
-9 -31 -26 -3 -17 -9 -22 -25 -20 -17 2 -23 12 -28 43 l-6 40 -2 -48z m104
-17 c0 -7 -6 -15 -12 -17 -8 -3 -13 4 -13 17 0 13 5 20 13 18 6 -3 12 -11 12
-18z"/>
<path d="M477 167 c-3 -7 -3 -26 0 -41 5 -22 10 -27 32 -24 22 3 26 8 29 41 3
35 2 37 -26 37 -17 0 -32 -6 -35 -13z m41 -14 c-4 -22 -22 -20 -26 1 -2 10 3
16 13 16 10 0 15 -7 13 -17z m-1 -39 c-3 -3 -12 -4 -19 -1 -8 3 -5 6 6 6 11 1
17 -2 13 -5z"/>
<path d="M552 150 c0 -19 2 -27 5 -17 2 9 2 25 0 35 -3 9 -5 1 -5 -18z"/>
<path d="M581 148 c2 -32 2 -32 6 -5 5 33 25 31 34 -4 6 -21 7 -21 8 9 1 28
-2 32 -24 32 -22 0 -25 -4 -24 -32z"/>
<path d="M246 94 c-5 -13 -17 -15 -59 -12 -28 2 -61 8 -72 13 -18 8 -19 7 -6
-8 23 -29 80 -40 126 -24 22 8 40 20 40 27 0 20 -22 23 -29 4z"/>
</g>
</svg>
